<?xml version="1.0" encoding="UTF-8" standalone="no"?>
<svg
   xmlns:dc="http://purl.org/dc/elements/1.1/"
   xmlns:cc="http://creativecommons.org/ns#"
   xmlns:rdf="http://www.w3.org/1999/02/22-rdf-syntax-ns#"
   xmlns:svg="http://www.w3.org/2000/svg"
   xmlns="http://www.w3.org/2000/svg"
   xmlns:sodipodi="http://sodipodi.sourceforge.net/DTD/sodipodi-0.dtd"
   xmlns:inkscape="http://www.inkscape.org/namespaces/inkscape"
   height="24"
   width="24"
   version="1.1"
   id="svg5893"
   sodipodi:docname="font.svg"
   inkscape:version="0.92.4 (5da689c313, 2019-01-14)"
   inkscape:export-filename="C:\Dvp\QGIS_PLUGINS\layer_tree_icons\icon.png"
   inkscape:export-xdpi="256"
   inkscape:export-ydpi="256">
  <metadata
     id="metadata5899">
    <rdf:RDF>
      <cc:Work
         rdf:about="">
        <dc:format>image/svg+xml</dc:format>
        <dc:type
           rdf:resource="http://purl.org/dc/dcmitype/StillImage" />
        <dc:title />
      </cc:Work>
    </rdf:RDF>
  </metadata>
  <defs
     id="defs5897" />
  <sodipodi:namedview
     pagecolor="#ffffff"
     bordercolor="#666666"
     borderopacity="1"
     objecttolerance="10"
     gridtolerance="10"
     guidetolerance="10"
     inkscape:pageopacity="0"
     inkscape:pageshadow="2"
     inkscape:window-width="1501"
     inkscape:window-height="958"
     id="namedview5895"
     showgrid="false"
     inkscape:zoom="1.2291667"
     inkscape:cx="-194.08482"
     inkscape:cy="212.0954"
     inkscape:window-x="0"
     inkscape:window-y="0"
     inkscape:window-maximized="0"
     inkscape:current-layer="g5891" />
  <g
     transform="translate(0 -8)"
     id="g5891">
    <text
       xml:space="preserve"
       style="font-style:normal;font-weight:normal;font-size:14.66666698px;line-height:1.25;font-family:sans-serif;letter-spacing:0px;word-spacing:0px;fill:#3b8ca5;fill-opacity:1;stroke:none"
       x="7.4270864"
       y="26.317678"
       id="text4529"><tspan
         sodipodi:role="line"
         id="tspan4527"
         x="7.4270864"
         y="26.317678"
         style="font-style:italic;font-variant:normal;font-weight:normal;font-stretch:normal;font-size:24px;font-family:sans-serif;-inkscape-font-specification:'sans-serif Italic';fill:#3b8ca5;fill-opacity:1;stroke:none;stroke-opacity:1">A</tspan></text>
    <path
       d="m 1.5,8.5000007 h 4 V 12.5 h -4 z"
       id="path5883-8"
       inkscape:connector-curvature="0"
       style="fill:#0058ba;fill-opacity:1;stroke:#002753;stroke-opacity:1" />
    <path
       sodipodi:type="inkscape:offset"
       inkscape:radius="0.6831376"
       inkscape:original="M 7.4863281 19.039062 C 7.1391059 19.039062 6.7953559 19.059896 6.4550781 19.101562 C 6.1148003 19.136285 5.7871094 19.183594 5.4746094 19.246094 C 5.1621094 19.308594 4.8648004 19.38151 4.5800781 19.464844 C 4.3023003 19.541233 4.047526 19.621745 3.8183594 19.705078 L 3.8183594 21.339844 C 4.4294705 21.096788 5.0203993 20.909288 5.5898438 20.777344 C 6.1662327 20.645399 6.749566 20.580078 7.3398438 20.580078 C 8.1523438 20.580078 8.7565103 20.767578 9.1523438 21.142578 C 9.548177 21.510634 9.7460938 22.003038 9.7460938 22.621094 L 9.7460938 23.539062 L 7.5800781 23.539062 C 6.0523003 23.539062 4.8960504 23.836372 4.1113281 24.433594 C 3.3335503 25.023872 2.9433594 25.843967 2.9433594 26.892578 C 2.9433594 27.316189 3.0058594 27.709202 3.1308594 28.070312 C 3.2628038 28.431424 3.4654948 28.746745 3.7363281 29.017578 C 4.0141059 29.281467 4.3634983 29.4898 4.7871094 29.642578 C 5.2107205 29.795356 5.7211371 29.871094 6.3183594 29.871094 C 6.9641927 29.871094 7.578776 29.746094 8.1621094 29.496094 C 8.7523872 29.246094 9.3328993 28.839844 9.9023438 28.277344 L 9.9433594 29.683594 L 11.568359 29.683594 L 11.568359 22.476562 C 11.568359 21.89323 11.474609 21.385634 11.287109 20.955078 C 11.099609 20.524523 10.828776 20.167535 10.474609 19.882812 C 10.127387 19.59809 9.7003038 19.384983 9.1933594 19.246094 C 8.6864149 19.107205 8.1182726 19.039062 7.4863281 19.039062 z M 7.4433594 24.923828 L 9.7460938 24.923828 L 9.7460938 26.777344 C 9.1488714 27.325955 8.5787761 27.729384 8.0371094 27.986328 C 7.5023871 28.236328 7.0279948 28.361328 6.6113281 28.361328 C 6.2918837 28.361328 6.0210504 28.319661 5.7988281 28.236328 C 5.5766059 28.152995 5.3947483 28.041233 5.2558594 27.902344 C 5.1169705 27.75651 5.0175781 27.594618 4.9550781 27.414062 C 4.8925781 27.226562 4.8613281 27.031467 4.8613281 26.830078 C 4.8613281 26.538411 4.9086371 26.277995 5.0058594 26.048828 C 5.110026 25.812717 5.266276 25.61198 5.4746094 25.445312 C 5.6829427 25.278646 5.9509549 25.148872 6.2773438 25.058594 C 6.6037326 24.968316 6.9919705 24.923828 7.4433594 24.923828 z "
       style="font-style:normal;font-weight:normal;font-size:14.66666698px;line-height:1.25;font-family:sans-serif;letter-spacing:0px;word-spacing:0px;fill:#fbfbfb;fill-opacity:1;stroke:none"
       id="text4525-4"
       d="m 7.4863281,18.355469 c -0.3745486,0 -0.7471342,0.02329 -1.1152343,0.06836 -0.3536203,0.03646 -0.6981149,0.08572 -1.03125,0.152344 -0.3309874,0.0662 -0.6465094,0.143252 -0.9511719,0.232422 -0.2892434,0.07979 -0.5583975,0.164346 -0.8046875,0.253906 a 0.68320591,0.68320591 0 0 0 -0.4492188,0.642578 v 1.634766 a 0.68320591,0.68320591 0 0 0 0.9355469,0.634765 c 0.5820759,-0.231507 1.1403374,-0.407989 1.671875,-0.53125 0.526466,-0.120516 1.0577765,-0.179687 1.5976563,-0.179687 0.7074019,0 1.1153743,0.160494 1.3417968,0.375 a 0.68320591,0.68320591 0 0 0 0.00586,0.0039 c 0.2564807,0.238483 0.375,0.506298 0.375,0.978516 v 0.234375 H 7.5800781 c -1.6152822,0 -2.9259103,0.307386 -3.8808593,1.033203 -0.9328532,0.707969 -1.4394532,1.78583 -1.4394532,3.003906 0,0.490805 0.072516,0.96101 0.2246094,1.400391 a 0.68320591,0.68320591 0 0 0 0.00391,0.01172 C 2.6536288,28.757219 2.9161114,29.162206 3.2539062,29.5 a 0.68320591,0.68320591 0 0 0 0.011719,0.01367 c 0.3549952,0.337245 0.7917784,0.592136 1.2890625,0.771484 0.5205742,0.187749 1.1086939,0.269531 1.7636719,0.269532 0.7325447,0 1.4432724,-0.144843 2.109375,-0.429688 l 0.00391,-0.002 C 8.7212142,30.00012 8.979186,29.730605 9.2558594,29.548828 l 0.00391,0.154297 a 0.68320591,0.68320591 0 0 0 0.6835938,0.664063 h 1.6249996 a 0.68320591,0.68320591 0 0 0 0.683594,-0.683594 v -7.207032 c 0,-0.656525 -0.105199,-1.260592 -0.337891,-1.794921 -0.227335,-0.52203 -0.570004,-0.974037 -1.005859,-1.326172 l -0.002,-0.002 C 10.476269,19.001453 9.9565489,18.747754 9.3730469,18.587891 8.7955719,18.429678 8.1673814,18.355469 7.4863281,18.355469 Z m -0.042969,7.251953 H 9.0625 v 0.822266 c -0.4687554,0.402828 -0.9217988,0.75079 -1.3144531,0.9375 -7.57e-4,3.53e-4 -0.0012,-3.54e-4 -0.00195,0 -6.623e-4,3.14e-4 -0.00129,0.0016 -0.00195,0.002 -0.4710616,0.219587 -0.8537911,0.308593 -1.1328125,0.308593 -0.2600406,0 -0.4508076,-0.03453 -0.5722656,-0.08008 -0.1452153,-0.05446 -0.2350368,-0.117342 -0.2929687,-0.173828 -0.071877,-0.07707 -0.1130356,-0.146056 -0.1425782,-0.230469 -2.93e-4,-8.37e-4 -0.00166,-0.0011 -0.00195,-0.002 -0.037874,-0.115595 -0.056641,-0.232751 -0.056641,-0.361328 0,-0.216189 0.034892,-0.379006 0.089844,-0.509766 0.059821,-0.133678 0.1377412,-0.239489 0.265625,-0.341796 0.1202398,-0.09619 0.3017179,-0.190668 0.5585938,-0.261719 0.247813,-0.06854 0.5778719,-0.109375 0.984375,-0.109375 z"
       transform="translate(-2.0056277,-0.05084746)" />
    <path
       sodipodi:type="inkscape:offset"
       inkscape:radius="0"
       inkscape:original="M 7.4863281 19.039062 C 7.1391059 19.039062 6.7953559 19.059896 6.4550781 19.101562 C 6.1148003 19.136285 5.7871094 19.183594 5.4746094 19.246094 C 5.1621094 19.308594 4.8648004 19.38151 4.5800781 19.464844 C 4.3023003 19.541233 4.047526 19.621745 3.8183594 19.705078 L 3.8183594 21.339844 C 4.4294705 21.096788 5.0203993 20.909288 5.5898438 20.777344 C 6.1662327 20.645399 6.749566 20.580078 7.3398438 20.580078 C 8.1523438 20.580078 8.7565104 20.767578 9.1523438 21.142578 C 9.5481771 21.510634 9.7460938 22.003038 9.7460938 22.621094 L 9.7460938 23.539062 L 7.5800781 23.539062 C 6.0523003 23.539062 4.8960504 23.836372 4.1113281 24.433594 C 3.3335503 25.023872 2.9433594 25.843967 2.9433594 26.892578 C 2.9433594 27.316189 3.0058594 27.709201 3.1308594 28.070312 C 3.2628038 28.431424 3.4654948 28.746745 3.7363281 29.017578 C 4.0141059 29.281467 4.3634983 29.4898 4.7871094 29.642578 C 5.2107205 29.795356 5.7211371 29.871094 6.3183594 29.871094 C 6.9641927 29.871094 7.578776 29.746094 8.1621094 29.496094 C 8.7523872 29.246094 9.3328993 28.839844 9.9023438 28.277344 L 9.9433594 29.683594 L 11.568359 29.683594 L 11.568359 22.476562 C 11.568359 21.893229 11.474609 21.385634 11.287109 20.955078 C 11.099609 20.524523 10.828776 20.167535 10.474609 19.882812 C 10.127387 19.59809 9.7003038 19.384983 9.1933594 19.246094 C 8.6864149 19.107205 8.1182726 19.039062 7.4863281 19.039062 z M 7.4433594 24.923828 L 9.7460938 24.923828 L 9.7460938 26.777344 C 9.1488715 27.325955 8.5787761 27.729384 8.0371094 27.986328 C 7.5023871 28.236328 7.0279948 28.361328 6.6113281 28.361328 C 6.2918837 28.361328 6.0210504 28.319661 5.7988281 28.236328 C 5.5766059 28.152995 5.3947483 28.041233 5.2558594 27.902344 C 5.1169705 27.75651 5.0175781 27.594618 4.9550781 27.414062 C 4.8925781 27.226562 4.8613281 27.031467 4.8613281 26.830078 C 4.8613281 26.538411 4.9086371 26.277995 5.0058594 26.048828 C 5.110026 25.812717 5.266276 25.611979 5.4746094 25.445312 C 5.6829427 25.278646 5.9509549 25.148872 6.2773438 25.058594 C 6.6037326 24.968316 6.9919705 24.923828 7.4433594 24.923828 z "
       style="font-style:normal;font-weight:normal;font-size:14.66666698px;line-height:1.25;font-family:sans-serif;letter-spacing:0px;word-spacing:0px;fill:#000000;fill-opacity:1;stroke:none"
       id="text4525"
       d="m 7.4863281,19.039062 c -0.3472222,0 -0.6909722,0.02083 -1.03125,0.0625 -0.3402778,0.03472 -0.6679687,0.08203 -0.9804687,0.144532 -0.3125,0.0625 -0.609809,0.135416 -0.8945313,0.21875 -0.2777778,0.07639 -0.5325521,0.156901 -0.7617187,0.240234 v 1.634766 c 0.6111111,-0.243056 1.2020399,-0.430556 1.7714844,-0.5625 0.5763889,-0.131945 1.1597222,-0.197266 1.75,-0.197266 0.8125,0 1.4166666,0.1875 1.8125,0.5625 0.3958333,0.368056 0.59375,0.86046 0.59375,1.478516 v 0.917968 H 7.5800781 c -1.5277778,0 -2.6840277,0.29731 -3.46875,0.894532 -0.7777778,0.590278 -1.1679687,1.410373 -1.1679687,2.458984 0,0.423611 0.0625,0.816623 0.1875,1.177734 0.1319444,0.361112 0.3346354,0.676433 0.6054687,0.947266 0.2777778,0.263889 0.6271702,0.472222 1.0507813,0.625 0.4236111,0.152778 0.9340277,0.228516 1.53125,0.228516 0.6458333,0 1.2604166,-0.125 1.84375,-0.375 0.5902778,-0.25 1.1707899,-0.65625 1.7402344,-1.21875 l 0.041016,1.40625 h 1.6249996 v -7.207032 c 0,-0.583333 -0.09375,-1.090928 -0.28125,-1.521484 -0.1875,-0.430555 -0.458333,-0.787543 -0.8125,-1.072266 C 10.127387,19.59809 9.7003038,19.384983 9.1933594,19.246094 8.6864149,19.107205 8.1182726,19.039062 7.4863281,19.039062 Z m -0.042969,5.884766 h 2.3027344 v 1.853516 c -0.5972223,0.548611 -1.1673177,0.95204 -1.7089844,1.208984 -0.5347223,0.25 -1.0091146,0.375 -1.4257813,0.375 -0.3194444,0 -0.5902777,-0.04167 -0.8125,-0.125 C 5.5766059,28.152995 5.3947483,28.041233 5.2558594,27.902344 5.1169705,27.75651 5.0175781,27.594618 4.9550781,27.414062 c -0.0625,-0.1875 -0.09375,-0.382595 -0.09375,-0.583984 0,-0.291667 0.047309,-0.552083 0.1445313,-0.78125 0.1041666,-0.236111 0.2604166,-0.436849 0.46875,-0.603516 0.2083333,-0.166666 0.4763455,-0.29644 0.8027344,-0.386718 0.3263888,-0.09028 0.7146267,-0.134766 1.1660156,-0.134766 z"
       transform="translate(-2.0056277,0.63274654)" />
  </g>
</svg>
